<svg width="111" height="112" viewBox="0 0 111 112" fill="none" xmlns="http://www.w3.org/2000/svg">
<path d="M43.6175 51.8926C44.3917 52.076 45.2079 52.2503 45.9547 52.5132C44.722 52.4865 43.2288 52.3969 42.0137 52.1811C42.5999 52.166 43.1229 52.2093 43.6175 51.8926Z" fill="#FA8023"/>
<path d="M56.4619 0C56.9513 0.686421 56.6869 5.40017 56.6729 6.63281L56.4375 32.2129C56.4147 35.6273 56.106 41.5695 56.5498 44.6377C57.9618 35.8755 59.4875 27.2059 60.582 18.377C60.8137 16.4994 62.7726 1.08961 63.2725 0.613281C64.0723 1.89972 57.8548 39.7555 57.5791 44.6514L57.5723 44.7959C58.0458 43.5977 58.4596 42.1398 58.8438 40.8896C59.098 41.6709 58.3971 43.2242 58.3496 44.2861C58.5268 43.5851 58.988 42.3219 59.4404 41.7871C59.1598 42.8929 58.8891 43.9783 58.5576 45.0713L58.6455 44.9297C59.6594 43.2657 62.1688 37.3242 63.0547 35.3154C66.3784 27.7017 69.6359 20.0593 72.8281 12.3896C73.2491 11.3888 76.0753 4.52125 76.4893 3.97656C76.7103 5.598 73.0229 13.6124 72.1582 15.6787L65.083 32.5273C63.2571 36.7687 61.2167 41.1996 59.5732 45.4922C62.2481 41.6364 64.9463 36.8364 67.2949 32.7451L76.3682 16.8262C77.2785 15.2047 81.2372 7.65215 82.4229 6.82617C82.4071 8.3522 62.9971 41.354 60.5449 46.1035C63.8635 42.5788 87.0466 10.3623 87.8955 10.0596C87.9814 10.1767 88.0602 10.2151 88.0322 10.3652C87.7586 11.8287 64.9006 41.3741 61.7627 46.3926C64.42 44.0067 67.6301 40.508 70.1348 37.8633L85.2188 21.8438C86.5342 20.4442 91.7493 14.4281 93.0234 14.0615C92.7779 14.7406 92.3502 15.0137 92.0205 15.4531C89.2585 19.1316 63.1793 45.5883 62.9268 46.8467C63.5739 46.8051 65.6574 44.7173 66.3066 44.1914C73.5068 38.3861 80.6217 32.4742 87.6465 26.457C88.6469 25.614 96.9391 18.4308 97.5039 18.3428L97.5928 18.5684C97.0046 19.6951 90.9156 24.5638 89.4404 25.8203L72.1338 40.4629C69.2204 42.9273 65.7457 45.7407 62.9814 48.2822C67.4839 45.8397 100.031 23.8271 101.382 23.8838C100.75 24.9359 91.1082 30.9855 89.3076 32.1621C82.0338 36.8693 74.8086 41.6528 67.6348 46.5107C66.6367 47.187 64.8789 48.2415 64.0283 48.9307C68.4308 46.9608 72.7581 44.7564 77.0957 42.6387L95.4834 33.7305C96.8116 33.086 104.032 29.3582 104.934 29.2617L105.109 29.4014C105.09 29.4354 104.879 29.791 104.879 29.791C91.4697 36.5173 77.8796 42.8765 64.5879 49.8369C67.1522 49.3075 74.2348 46.6794 76.9922 45.7217C85.3762 42.7726 93.7868 39.8962 102.222 37.0928C103.527 36.67 106.254 35.4463 107.477 35.498L107.646 35.6836C107.328 36.0602 100.03 38.4714 99.0967 38.7969L77.5029 46.291C73.3389 47.759 68.3506 49.4739 64.3076 51.2002L92.9365 44.9932C94.8774 44.562 108.65 41.2964 109.354 41.6582C108.049 42.823 70.5831 50.2123 64.8428 52.1699C69.4434 51.9786 74.642 51.2881 79.2549 50.7969L99.4922 48.7266C101.439 48.5259 108.854 47.5298 110.355 47.7041L110.525 47.9102C110.495 47.9401 110.201 48.2373 110.201 48.2373C95.9676 49.8959 81.6704 51.0512 67.4648 52.9521C66.4582 53.0868 65.5321 53.2057 64.543 53.4512C75.1878 53.7737 85.8382 53.9695 96.4883 54.04C98.951 54.0735 108.831 54.0715 110.537 54.4775L110.641 54.666C109.34 55.1376 103.251 54.8031 101.371 54.7861L77.1152 54.5254C73.4775 54.49 67.6769 54.271 64.2285 54.5293C78.9463 56.8066 93.8921 58.3748 108.648 60.4678C109.18 60.5432 109.791 60.6628 110.219 60.9883C109.333 61.4998 105.447 60.7315 104.271 60.5898C90.984 58.9914 77.6446 56.8239 64.3125 55.7207C66.9697 56.6264 70.3919 57.2682 73.1895 57.9658L96.9512 63.9844C98.7143 64.4283 108.936 66.7893 109.492 67.3379L109.42 67.5752C108.512 67.7007 100.916 65.6768 99.5947 65.3486L79.6709 60.3857C74.9158 59.2066 69.0116 57.6291 64.1338 57.1006C66.6682 58.5098 75.8814 61.3425 79.0811 62.4912C85.969 64.963 92.896 67.565 99.7471 70.1768C101.966 71.0227 107.061 72.648 108.818 73.9189C106.982 73.7222 103.007 72.1331 101.061 71.4131L87.8545 66.4434C79.8916 63.507 71.8446 60.8008 63.7256 58.3291C66.3214 59.8879 69.8064 61.767 72.5303 63.168C72.3286 63.3849 72.1215 63.6348 71.876 63.7949C69.0679 62.3983 66.2791 60.965 63.5078 59.4951C65.3075 61.2483 70.7302 64.9658 73.0332 66.6191C79.379 71.1566 85.7025 75.7255 92.001 80.3262C93.2919 81.2602 100.806 86.2433 100.899 87.1064C100.042 87.1776 97.0524 84.7984 96.1807 84.1777L87.9316 78.2568L63.9395 61.2109C63.5799 60.9582 63.1694 60.5412 62.9414 60.7354C63.7137 61.6319 67.2948 64.8174 68.3262 65.7861C74.1037 71.2655 79.9142 76.7114 85.7549 82.1221C87.0034 83.2815 96.5837 91.9593 96.751 92.6406C96.2127 92.6923 95.9706 92.436 95.5674 92.1084C91.709 88.9818 63.4417 61.921 62.4346 61.8271C62.542 62.1966 66.0442 66.3911 66.6143 67.0781L82.5 86.1602C83.8459 87.7704 91.0347 95.9743 91.4346 97.3037C90.6201 97.2596 85.3052 90.5925 84.4648 89.6055L68.6064 70.7412C66.3912 68.1084 63.2811 64.2235 60.9482 61.8145C66.6575 70.9301 79.7285 91.1278 86.3955 101.232C86.3727 101.353 86.3498 101.474 86.3252 101.594L86.0391 101.642C84.7408 100.304 80.7092 93.7888 79.3955 91.7842L67.6309 73.8086C65.4226 70.422 62.5258 65.7769 60.1562 62.5938C61.7067 66.2991 64.3809 71.33 66.2051 74.9971L75.6084 94.0781L78.8379 100.595C79.3379 101.586 80.8982 104.039 80.5439 105.072C79.3407 104.014 62.4414 68.9639 59.3701 63.627C62.4799 72.6785 65.7003 81.6925 69.0293 90.666C69.829 92.8417 75.2372 106.764 74.8477 107.771C73.4813 105.334 72.2145 101.055 71.1445 98.2861C68.4136 91.1568 65.7582 83.998 63.1816 76.8115C61.896 73.2267 59.7753 66.895 58.2266 63.5098C59.0053 66.5455 59.6599 69.6397 60.3369 72.7021C62.9556 84.5491 66.0262 96.2837 68.7168 108.113C68.8203 108.567 68.9592 109.198 68.7979 109.64C68.3366 109.366 68.228 108.817 68.0859 108.272C65.5812 98.3522 63.1798 88.4052 60.8838 78.4346C60.1507 75.2996 59.4 72.1686 58.6318 69.042C58.2951 67.6658 57.7424 65.1154 57.2285 63.9072C57.7477 67.9312 58.1582 72.0014 58.6055 76.0381C59.8192 86.9844 61.2642 97.8965 62.5762 108.83C62.6463 109.415 62.6941 110.135 62.5117 110.691C61.8978 110.154 60.5087 97.6689 60.3105 96.1318L56.2656 63.9541L56.2393 64.0889C55.8814 66.0295 56.2343 68.7189 56.0957 70.5645C55.7994 74.5267 56.5124 82.2192 56.123 85.752C55.7389 89.2217 56.7477 109.14 55.9199 111.029L55.6934 111.011C55.3759 110.394 55.4939 99.402 55.4922 97.7461C55.5869 86.6149 55.471 75.4823 55.1465 64.3555L54.9775 64.3301C54.4373 67.8994 54.0364 72.1106 53.626 75.7461L50.9561 99.3672C50.6912 101.476 50.4366 103.586 50.1963 105.698C50.0665 106.928 50.0057 109.947 49.2236 110.82C48.9535 110.04 53.7625 68.1994 54.0537 62.9922C52.9592 67.7808 43.4459 109.275 42.9697 109.802L42.7305 109.675C42.2974 108.229 52.3345 69.1682 52.8467 63.208C51.7224 66.2753 36.6369 107.422 36.0703 107.866L35.8877 107.743C35.9203 106.471 40.2259 95.3663 41.0078 93.2021C44.7166 82.9377 48.6584 72.9433 51.9893 62.5205C49.1038 67.289 31.244 104.363 29.8779 104.954C30.1785 103.234 36.4667 91.3266 37.7285 88.8271C42.2169 80.0367 46.5847 71.1849 50.8301 62.2744L50.7002 62.4121C49.1181 64.1263 44.6545 70.979 43.1836 73.1865L29.5117 93.7783C28.0205 96.0266 26.4693 98.4302 25.0049 100.718C24.8086 101.024 24.3417 101.329 23.9238 101.374C24.1027 100.328 42.8025 72.5809 44.7871 69.4092C45.3358 68.5324 49.1236 63.0245 49.3867 62.1719C49.0429 62.3083 46.3659 65.4698 45.9053 65.9893C40.9165 71.5432 36.0178 77.1776 31.2119 82.8906C29.6567 84.7282 20.0232 96.4762 18.8154 97.0381C18.9051 94.9737 45.8356 65.8626 49.1377 60.6416C45.4755 64.0949 14.8136 92.38 14.0059 92.5273C14.0017 92.1716 14.0034 91.9707 14.3164 91.6777C18.7678 87.5088 23.3035 83.3215 27.8066 79.2178C34.7594 72.9131 41.6199 66.5072 48.3848 60.001C46.4243 61.162 44.713 62.3243 42.8496 63.6133C42.135 64.1076 40.512 65.3005 39.8125 65.6729L39.2197 65.1201C41.5015 63.599 45.6474 60.7362 47.6318 58.999C43.0621 61.2328 38.5966 63.708 34.1143 66.1143C28.6257 69.0073 23.1634 71.9509 17.7285 74.9434C15.8508 75.9792 7.49556 80.9157 6.21289 80.9326C7.80923 78.7804 41.8029 61.62 46.9365 58.0645C38.1859 61.2863 29.4882 64.6506 20.8477 68.1572C18.9761 68.9206 4.69414 74.958 3.53809 74.9492L3.46777 74.7666C3.5346 74.668 3.74664 74.3836 3.83398 74.3506C6.43547 73.3677 9.52996 72.069 12.0469 71.0381C18.8597 68.2207 25.6937 65.4549 32.5488 62.7422C36.6412 61.1313 42.8301 58.8891 46.6064 56.9814C37.3496 58.9566 26.2052 61.7668 16.9902 64.1875L6.95605 66.8506C6.21424 67.0436 1.89673 68.2961 1.49316 67.9941C2.87181 67.0623 8.42888 65.7836 10.4102 65.2461C16.9184 63.4984 23.4465 61.8236 29.9922 60.2217C35.2424 58.9282 41.3981 57.4669 46.5352 55.8467C35.593 56.7933 24.9405 58.4404 14.0801 59.9121C12.0733 60.1841 1.79652 61.7035 0.557617 61.6074L0.411133 61.4092C1.0037 60.7712 3.22029 60.7756 4.13281 60.6523L12.0508 59.5283L30.7168 56.8809C35.4517 56.2538 41.0076 55.6771 45.6562 54.8555C45.3279 54.728 40.5514 54.7815 39.9307 54.7822L13.1689 55.0303L5.31348 55.1572C4.20737 55.1816 0.680335 55.5479 0 54.7832C1.20997 54.4411 8.37709 54.4707 10.1172 54.4482L33.2627 54.0635C36.3724 54.0137 43.2692 54.078 46.0996 53.6855C41.1407 52.8026 1.10469 49.0938 0.447266 48.6348C0.339746 48.5595 0.365722 48.4732 0.347656 48.3506C1.74211 47.8488 36.7321 51.7719 42.0146 52.1807C42.6007 52.1656 43.1236 52.209 43.6182 51.8926C31.3919 48.6924 18.5315 46.5458 6.20898 43.6299C4.92901 43.3271 2.23069 43.1721 1.35059 42.1904C2.3451 41.9002 41.9863 50.5442 46.7588 51.6406C43.0701 50.0404 38.2492 48.4262 34.3975 47.0713C27.9267 44.7858 21.4416 42.5409 14.9424 40.3369L7.33594 37.751C6.36977 37.4222 4.14635 36.7241 3.35938 36.3164L3.33691 36.0439C4.04348 35.7947 5.49887 36.4705 6.21777 36.6953C19.8154 40.9476 33.3082 46.2343 46.8984 50.4023C44.5981 49.1576 42.2511 48.0009 39.8633 46.9336C40.2549 45.9191 39.7188 46.8178 39.2861 45.7656C41.5781 46.6361 44.897 48.2797 47.2754 49.334C44.7272 47.4571 40.2884 44.8921 37.4658 43.123L17.9004 30.8672C15.0898 29.1032 12.1115 27.3241 9.33301 25.5078C8.8954 25.2217 8.91737 25.1915 8.86816 24.8105L9.14746 24.7129C10.7318 25.2558 18.0124 30.1357 19.7539 31.2168C29.208 37.179 38.7505 43.0003 48.3779 48.6797C45.5321 46.1763 41.8195 43.3908 38.8086 40.9785L21.9287 27.4639C19.3817 25.4523 14.79 22.0838 12.5312 20.0322L12.5244 19.7461L12.8193 19.6025C13.8045 20.1116 15.7991 21.7733 16.7432 22.5156L23.1465 27.5371C31.5709 34.1517 39.8441 40.7647 48.3779 47.2471L48.502 47.1689C47.1676 45.5774 42.8944 41.4983 41.2686 39.8379L24.5068 22.7236C23.1164 21.2988 17.6843 16.22 17.2793 14.6533C18.1256 14.8193 45.3984 42.9634 49.7246 46.8291C46.8304 42.767 22.1472 11.9042 22.0029 10.8975C23.1969 11.2289 23.9693 12.6082 24.709 13.5283C33.148 24.028 41.174 35.1416 49.8477 45.4268L49.9912 45.3154C45.4633 37.8724 41.118 30.5594 36.4873 23.1377C34.2298 19.5543 31.9944 15.9568 29.7812 12.3457C29.0221 11.1011 27.2425 8.80483 27.2783 7.45703C28.2543 7.81339 48.0315 40.9637 51.3242 45.4297C45.5845 32.1156 39.0019 18.8008 32.79 5.6748C32.6108 5.29619 32.6395 5.13495 32.7773 4.78125C33.2227 4.99239 33.4398 5.32918 33.6572 5.79785C35.5333 9.84179 37.467 13.915 39.3867 17.9326C43.6664 26.7956 47.8907 35.6852 52.0576 44.6016C50.9473 40.3517 49.1563 35.3451 47.7461 31.1895L42.1279 14.6416C41.631 13.2174 37.9344 3.26868 38.3418 2.5752C38.6917 2.83632 38.7675 2.83474 38.9248 3.29297C40.362 7.47721 41.8026 11.7165 43.2529 15.8896L53.1572 44.4395C52.0906 39.147 43.8286 2.06593 43.9639 1.28223L44.2607 1.14746C45.3469 2.32879 52.3469 39.3908 54.3447 44.7852L54.4082 44.9502C54.0118 41.6034 53.8154 38.0327 53.4717 34.6426L50.8652 10.3906C50.5828 7.76417 50.0899 3.39127 49.8408 0.579102C49.9092 0.475045 49.9795 0.370658 50.0479 0.266602L50.332 0.330078C50.7372 1.42046 51.4052 9.16264 51.5596 10.666L53.7852 30.5518C54.15 34.0583 54.6433 40.795 55.3203 44.0078C55.75 41.0259 55.7231 33.4099 55.7529 30.2725L56.041 9.39648C56.0743 6.54363 56.0585 3.51227 56.1094 0.642578C56.1164 0.260196 56.2305 0.172688 56.4619 0ZM62.5625 53.4199C62.124 49.539 58.6247 46.7459 54.7432 47.1797C50.8546 47.6141 48.0549 51.1207 48.4951 55.0078C48.9337 58.8948 52.4434 61.6881 56.3301 61.2451C60.2116 60.8027 63.0009 57.3007 62.5625 53.4199Z" fill="#FA8023"/>
<path d="M58.8432 40.8895L66.2609 16.1738C66.7853 14.3949 70.0864 2.52943 70.5652 2.24902C70.6687 4.1691 66.5187 17.5515 65.8014 19.991L59.4396 41.7874C58.9871 42.3222 58.5258 43.5854 58.3486 44.2863C58.396 43.2243 59.0976 41.6707 58.8432 40.8895Z" fill="#F6721D"/>
<path d="M72.5292 63.1685C76.7318 65.4086 102.514 78.9838 104.364 81.1612L104.277 81.3164L104.391 81.2964L104.171 80.9848L103.819 81.158C98.541 78.5516 92.495 74.8654 87.1996 71.9695C82.3007 69.2905 76.6125 66.5257 71.875 63.795C72.1206 63.6349 72.3275 63.3854 72.5292 63.1685Z" fill="#F6721D"/>
<path d="M39.8632 46.9332C29.5749 42.16 19.4253 36.8366 9.03777 32.2429C8.42878 31.9736 5.9146 30.7839 5.70605 30.231C6.32399 30.2915 7.0968 30.5126 7.66281 30.7762C16.193 34.7522 24.6876 38.8093 33.2003 42.8236C35.2049 43.7688 37.343 44.7253 39.2859 45.7661C39.7186 46.8183 40.2548 45.9187 39.8632 46.9332Z" fill="#F6721D"/>
<path d="M39.2188 65.1196L39.8119 65.6733C31.3704 71.2385 23.3761 77.6329 15.1588 83.5239C13.6237 84.6243 12.1785 85.7728 10.5552 86.7519L10.2707 86.6696L10.3823 86.8497C10.1206 87.0062 10.0997 86.9934 9.79785 87.0598C11.1214 85.1192 35.7559 67.4399 39.2188 65.1196Z" fill="#F6721D"/>
</svg>
